<svg xmlns="http://www.w3.org/2000/svg" width="1024" height="1024" preserveAspectRatio="none" style="display:block" viewBox="0 0 2048 2048"><path fill="#010001" d="m1022.4 1015.4.2-1.5c1.4-13.6-.3-29.6-.1-39.6.3-18.4-4.4-66.5-4.5-80.7-.4-30.7-15.4-308.6-13.1-314.2l1.4-.7c1.3 2.6 2 32.8 2.3 39q9 180.3 17.2 360.5c.5 9.9-.4 22 2.8 30.8 6.9-6 41.6-63.8 49.1-75.9l161.3-258q16.5-26.4 32.8-53c7.8-13 21.6-36.8 31.7-46.8-2.9 9.9-43.3 73-51.8 86.8l-145.2 232.6-44.3 71c-9.6 15.2-22.4 33.7-30.2 49.6l1.4-.3c11.7-3 32.8-14 44.3-19.8l62.2-31.5 214.3-108.5q41.8-21.6 83.9-42.3c8.5-4.3 34.2-19.8 42.7-19.4-5.6 4.6-26.6 14.8-34 18.7l-73.7 37.4-223.3 113.5c-35.1 17.9-79.3 37.8-112.4 57.2 35.4 7.2 73.4 11.7 109.6 17.8q107.2 18.5 214 38.6c29 5.4 78.7 13 105.3 20.4-6.3 2.9-31.9-3.5-40-5l-85.3-15.5q-123.7-23.3-248-43.4c-15.9-2.6-42.5-8.4-59-8.7l-3.8 3-.6 2 198.3 220.8c20.5 23 41.6 45.4 61.5 68.8 6.8 8 19.6 21.3 24.1 30-14.4-10.6-46-48.6-59.7-64l-88.1-98.5-95.6-106.4c-10.6-11.8-36.4-39.4-44-51.8-2 29 .8 54.6 2 83.6 2.2 50.6 5.6 101.1 7.5 151.6.7 16.5 2.6 32.3 2.6 48.9-.8 7.2.3 18-.7 24l-1.2-.6c-5.7-71.9-7-144.8-11.9-216.7-1.6-23.3-1-61.7-4.3-82.9-7.4 9.6-17.4 26.8-24.1 37.8l-40.2 64.6L804.6 1382a2682 2682 0 0 1-26 40.7c-5.7 8.9-23.3 39.5-29.5 45.1l-.8-.8c.7-6 34-57 39.4-65.3l81.2-129.9c47.7-76.5 94.8-155.8 143.6-231.4 9.7-15.7-10.8-3.4-16.7-.3-35.7 17.1-69.4 34.8-104.6 52.6l-206.9 104.4-73 36.7c-13 6.5-28.5 15-41.6 20.2l-1-.6-1.3 1c3.6-5.4 76.7-41 88.2-46.9l129-65.4 171.6-86.5c16.4-8.2 33.2-17.5 49.5-25.4l-1.4-5.5L747 976.5A5194 5194 0 0 1 635.3 956c-9.8-1.9-50-8-54.9-12.2 6-2 72.8 12.1 83.1 14l220 40.5c17.6 3.2 127.1 25.8 134.6 21.5-2.7-7.3-60.7-69.6-69.8-79.9L789.7 762.6c-8.7-9.7-46.4-49.5-50.4-58.7 5.3 0 68.1 72.7 76.6 82.2l128.7 143 50 56.4c8.5 9.6 18.3 21.7 27.8 30"/><path fill="#FAF8FA" d="M1004.3 1024.7c1.9.1 9 .5 10 1.8-.2 1-7.4 3.3-8.6 3.7z"/><path fill="#010001" d="M1038 1366c.6-4 .6-4.8 1.8-8.6 1 13.2 7.1 103.2 4.1 109.5-3-8.8-6-87.2-6-100.9"/><path fill="#010001" fill-opacity=".8" d="M1038.2 1312.5c1 10.1.3 22.2.8 32.5.2 4.6 1.3 7.3.8 12.4-1.2 3.8-1.2 4.6-1.9 8.6-.5-5.4-1.8-25.2-1.6-30.1l1.2.6c1-6 0-16.8.7-24"/><path fill="#FAF8FA" fill-opacity=".1" d="M995.8 1040.1c5.9-3 26.4-15.4 16.7.3-6 0-9.9-.4-16.7-.3"/></svg>