<svg version="1.1" xmlns="http://www.w3.org/2000/svg" style="display: block;" viewBox="291.5 135 2105.875 2416.5" width="1203" height="2417" preserveAspectRatio="none">
<path transform="translate(0,0)" fill="rgb(226,219,204)" fill-opacity="0.00784314" d="M 624.888 167.121 C 629.573 167.719 636.047 165.146 641.637 164.787 C 662.321 163.457 685.945 159.15 706.451 159.243 C 811.454 159.715 916.539 159.34 1021.52 159.36 L 1756.59 159.381 L 1990.48 159.45 C 2006.84 159.392 2022.69 163.363 2036.02 162.88 C 2061.4 162.631 2200.35 182.35 2217.78 192.428 C 2220.02 193.731 2220.32 194.002 2222.78 194.445 C 2240.58 197.512 2255.08 206.636 2270.77 214.719 C 2302.66 231.153 2330.09 251.19 2347.98 283.099 C 2380.25 340.634 2370.75 404.589 2370.93 466.675 L 2371.84 713.483 L 2372.28 1530.97 L 2371.87 2063.61 L 2372 2226.94 C 2372.02 2242.17 2373.1 2292.26 2371.66 2304.71 C 2368.92 2327.77 2365.88 2345.76 2359.76 2368.62 C 2334.96 2461.18 2238.46 2487.46 2156.42 2506.73 C 2145.24 2509.35 2130.47 2508.17 2119.21 2510.29 C 2092.34 2515.33 2066.06 2516.28 2038.98 2518.62 C 2020.76 2516.78 1995.83 2521.38 1976.46 2521.53 C 1962.59 2521.63 1950.24 2520.94 1936.59 2520.79 L 1872.94 2520.62 C 1793.76 2519.63 1714.17 2517.15 1634.93 2516.49 C 1616.17 2516.33 1597.11 2511.53 1578.85 2511.43 C 1472.36 2510.85 1365.89 2509.7 1259.39 2510.12 C 1240.54 2510.2 1138.47 2508.65 1124.97 2512.81 L 1127.98 2513.81 C 1117.97 2515.32 1104.63 2513.33 1094.86 2514.22 C 1066.16 2516.85 1038.16 2517.22 1009.39 2518.07 C 892.104 2522.21 774.711 2522.24 657.425 2518.17 C 645.04 2517.63 636.369 2513.31 624.636 2511.6 C 615.431 2510.39 605.831 2511.14 596.619 2510.36 C 573.021 2508.35 550.887 2507.02 527.171 2507.94 C 518.371 2507.28 508.514 2503.01 499.665 2500.96 C 452.958 2490.14 406.374 2468.35 369.541 2437.88 C 347.571 2419.71 330.191 2382.52 325.293 2355.18 C 324.746 2352.12 320.721 2342.1 320.633 2339.3 C 319.844 2314.09 320.447 2285.9 320.434 2260.82 L 320.372 2078.24 C 320.404 2053.88 321.978 2006.14 320.065 1983.58 L 319.954 1982.4 L 319.836 935.222 L 319.821 548.758 C 319.833 485.062 319.355 421.222 319.944 357.522 C 320 351.421 319.521 340.377 323.132 335.711 C 324.626 333.233 331.21 308.243 333.059 302.958 C 348.644 258.415 394.478 222.156 437.205 206.044 C 438.496 205.575 440.432 204.938 441.527 203.949 C 447.037 198.972 453.022 199.77 459.859 196.737 C 497.106 181.943 547.302 176.259 586.846 170.957 C 599.492 169.262 612.262 168.931 624.888 167.121 z M 1638.25 316.155 C 1632.67 315.71 1627.97 330.811 1626.42 316.417 L 1628.17 315.075 C 1631.95 312.23 1635.35 306.97 1638.32 303.042 C 1638.46 296.208 1639.06 283.845 1637.74 277.111 L 1636.63 275.751 C 1629.34 266.931 1622.96 256.453 1611.12 251.976 C 1591.37 244.504 1587.51 241.665 1565.98 240.885 C 1558.85 227.71 1572.69 236.99 1581.56 232.199 C 1597.85 236.033 1613.88 240.906 1627.23 251.314 C 1635.15 257.484 1635.49 255.075 1643.95 265.327 C 1656.6 280.666 1658.44 304.617 1638.25 316.155 z M 1058.91 252.71 L 1068.21 252.137 C 1069.58 255.036 1068.58 256.031 1067.75 260.012 C 1061.1 262.394 1055.71 267.405 1052.86 273.872 C 1048.61 283.666 1049.67 291.449 1050.25 301.762 C 1089.87 346.483 1127.05 336.756 1182.78 336.318 L 1274.39 336.193 L 1578.2 335.988 C 1580.48 336.217 1597.3 336.707 1597.5 336.917 C 1597.73 335.768 1590.18 343.337 1589.24 344.546 C 1577.96 347.264 1540.73 346.468 1527.3 346.462 L 1420.38 346.389 L 1225.51 346.382 C 1191.27 346.378 1158.17 345.959 1122.77 346.048 C 1086.85 346.138 1012.84 315.845 1042.03 268.72 C 1043.6 266.183 1056.24 254.175 1058.91 252.71 z M 419.126 2368.77 C 428.045 2407.86 490.901 2439.56 524.847 2452.27 C 541.732 2457.48 558.844 2461.92 576.13 2465.59 C 575.02 2470.99 563.039 2466.78 555.827 2467.23 C 544.419 2466.19 520.971 2458.56 510.135 2454.19 C 490.207 2448.47 464.675 2431.78 447.903 2420.04 C 448.573 2423.79 455.8 2429.82 458.971 2431.73 C 586.194 2508.63 753.782 2480.23 896.751 2485.61 C 986.691 2489 1079.36 2479.65 1169.99 2490.91 C 1180.17 2494.24 1195.22 2493.37 1206.14 2493.33 L 1274.86 2492.98 C 1311.63 2492.73 1344.73 2496.76 1381.37 2500.12 C 1391.77 2501.07 1421.24 2494.52 1433.23 2493.7 C 1450.5 2490.3 1469.07 2494.92 1483.92 2492.67 C 1519.32 2494.29 1560.26 2494.71 1595.63 2492.77 C 1626.5 2491.09 1656.72 2487.89 1687.76 2487.49 C 1712.57 2487.17 1737.18 2489.22 1761.94 2489.28 C 1800.81 2489.37 1839.71 2487.74 1878.59 2487.48 C 1927.46 2487.16 1976.36 2488.13 2025.22 2487.22 C 2045.59 2486.84 2066.93 2484.76 2087.09 2481.8 C 2103.51 2479.38 2184.78 2462.28 2193.74 2452.81 C 2199.17 2447.07 2205.3 2448.76 2211.65 2445.38 C 2214.88 2443.65 2215.8 2440.91 2216.89 2437.7 C 2191.95 2453.97 2127.16 2472.45 2097.45 2474.03 L 2096.41 2471.81 C 2092.96 2471.46 2091.22 2471.32 2087.84 2470.46 L 2085.49 2469.84 C 2132.45 2464.04 2171.99 2452.84 2214.23 2431.32 C 2216.16 2429.72 2219.94 2427.27 2222.13 2425.74 C 2230.21 2421.04 2236.44 2414.75 2244.18 2409.42 C 2248.42 2404.2 2253.37 2400.11 2258.21 2393.62 C 2281.52 2362.33 2280.24 2341.59 2280.28 2305.12 C 2279.03 2226.28 2280.16 2144.1 2280.17 2065.06 L 2280.25 1595.49 L 2280.26 386.347 C 2280.29 354.964 2282.04 330.63 2264.02 303.305 C 2221.7 239.136 2136.76 223.818 2067.12 216.958 C 2031.95 212.085 1983.25 213.244 1946.95 213.234 L 1749.98 213.293 C 1719.56 213.304 1674.68 214.746 1645.4 212.692 C 1576.69 211.509 1508.44 212.41 1439.78 212.418 C 1273.64 211.437 1107.49 211.939 941.357 213.924 L 761.972 212.95 C 727.158 212.715 632.182 210.236 602.941 219.073 L 601.05 219.463 C 594.953 220.672 586.536 219.816 580.318 221.255 C 522.954 234.526 465.719 247.235 430.394 299.421 C 423.311 309.885 416.158 323.951 413.699 336.112 C 412.191 343.57 409.88 352.6 409.845 360.038 C 409.583 416.115 409.877 472.446 409.931 528.513 L 409.835 848.19 L 409.685 1825.19 L 409.8 2200.14 C 409.794 2225.13 406.689 2330.19 411.787 2347.52 C 413.93 2354.8 416.063 2361.08 419.035 2368.05 C 419.13 2368.27 419.096 2368.53 419.126 2368.77 z M 1073.28 242.224 C 1084.05 243.874 1082.68 240.358 1082.3 249.173 C 1073.66 249.099 1073.45 250.749 1073.28 242.224 z M 601.351 2469.46 C 621.314 2471.71 639.823 2473.85 659.894 2475.71 C 654.347 2478.81 633.239 2476.92 622.941 2478.03 C 619.597 2478.05 616.255 2477.84 612.94 2477.4 C 607.291 2476.64 601.647 2475.93 596.007 2475.09 C 593.527 2470.08 595.993 2470.67 601.351 2469.46 z"/>
<path transform="translate(0,0)" fill="rgb(23,21,18)" d="M 447.903 2420.04 C 441.296 2412.73 431.197 2404.8 423.431 2395.8 C 404.089 2373.4 399.156 2360.41 397.509 2330.93 C 395.457 2294.21 396.385 2256.84 396.493 2220.1 C 396.208 2159.81 396.386 2099.52 397.027 2039.23 L 396.621 1559.35 L 396.142 770.849 L 396.946 484.595 C 397.336 441.848 396.411 400.406 398.197 357.465 C 398.513 318.88 416.224 294.429 444.203 268.463 C 483.041 232.418 537.863 220.679 588.326 210.253 C 596.965 208.468 609.176 209.885 618.123 208.593 C 668.627 201.299 719.607 205.373 770.436 204.448 C 858.709 203.915 947.293 205.793 1035.59 205.136 C 1210.47 203.501 1385.36 203.441 1560.24 204.957 L 1712.47 204.621 C 1743.49 204.325 1784.8 202.805 1814.97 204.54 C 1851.08 202.565 1889.83 204.183 1926.88 204.086 C 2035.55 203.803 2163.54 200.771 2252.64 272.783 C 2277.24 292.66 2275.15 309.45 2289.18 330.014 C 2288.89 340.842 2293.34 344.803 2293.61 350.495 C 2294.22 363.084 2293.93 379.408 2293.92 392.302 L 2293.92 720.674 L 2293.71 1681.92 L 2293.89 2091.8 C 2293.93 2172.46 2295.61 2257.5 2291.72 2338.28 C 2291.38 2345.38 2288.94 2352.75 2288.68 2360.37 C 2282.08 2374.29 2277.87 2383.6 2268.42 2396.01 C 2263.65 2402.27 2257.59 2406.96 2254.51 2412.52 C 2243.48 2418.9 2230.03 2433.45 2217.69 2436.97 C 2217.42 2437.21 2217.16 2437.46 2216.89 2437.7 C 2191.95 2453.97 2127.16 2472.45 2097.45 2474.03 L 2096.41 2471.81 C 2092.96 2471.46 2091.22 2471.32 2087.84 2470.46 L 2085.49 2469.84 C 2132.45 2464.04 2171.99 2452.84 2214.23 2431.32 C 2216.16 2429.72 2219.94 2427.27 2222.13 2425.74 C 2230.21 2421.04 2236.44 2414.75 2244.18 2409.42 C 2248.42 2404.2 2253.37 2400.11 2258.21 2393.62 C 2281.52 2362.33 2280.24 2341.59 2280.28 2305.12 C 2279.03 2226.28 2280.16 2144.1 2280.17 2065.06 L 2280.25 1595.49 L 2280.26 386.347 C 2280.29 354.964 2282.04 330.63 2264.02 303.305 C 2221.7 239.136 2136.76 223.818 2067.12 216.958 C 2031.95 212.085 1983.25 213.244 1946.95 213.234 L 1749.98 213.293 C 1719.56 213.304 1674.68 214.746 1645.4 212.692 C 1576.69 211.509 1508.44 212.41 1439.78 212.418 C 1273.64 211.437 1107.49 211.939 941.357 213.924 L 761.972 212.95 C 727.158 212.715 632.182 210.236 602.941 219.073 L 601.05 219.463 C 594.953 220.672 586.536 219.816 580.318 221.255 C 522.954 234.526 465.719 247.235 430.394 299.421 C 423.311 309.885 416.158 323.951 413.699 336.112 C 412.191 343.57 409.88 352.6 409.845 360.038 C 409.583 416.115 409.877 472.446 409.931 528.513 L 409.835 848.19 L 409.685 1825.19 L 409.8 2200.14 C 409.794 2225.13 406.689 2330.19 411.787 2347.52 C 413.93 2354.8 416.063 2361.08 419.035 2368.05 C 419.13 2368.27 419.096 2368.53 419.126 2368.77 C 428.045 2407.86 490.901 2439.56 524.847 2452.27 C 541.732 2457.48 558.844 2461.92 576.13 2465.59 C 575.02 2470.99 563.039 2466.78 555.827 2467.23 C 544.419 2466.19 520.971 2458.56 510.135 2454.19 C 490.207 2448.47 464.675 2431.78 447.903 2420.04 z"/>
<path transform="translate(0,0)" fill="rgb(226,219,204)" fill-opacity="0.243137" d="M 2067.12 216.958 C 2136.76 223.818 2221.7 239.136 2264.02 303.305 C 2282.04 330.63 2280.29 354.964 2280.26 386.347 L 2280.25 1595.49 L 2280.17 2065.06 C 2280.16 2144.1 2279.03 2226.28 2280.28 2305.12 C 2280.24 2341.59 2281.52 2362.33 2258.21 2393.62 C 2253.37 2400.11 2248.42 2404.2 2244.18 2409.42 C 2236.44 2414.75 2230.21 2421.04 2222.13 2425.74 C 2219.94 2427.27 2216.16 2429.72 2214.23 2431.32 C 2171.99 2452.84 2132.45 2464.04 2085.49 2469.84 C 2068.84 2471.69 2042.74 2475.08 2026.57 2475.37 C 1991.94 2475.98 1956.13 2475.49 1921.44 2475.44 L 1762.06 2475.45 L 1619.48 2475.91 C 1600.21 2475.88 1569.43 2476.69 1550.69 2475.14 C 1557.19 2474.04 1575.53 2473.86 1583.74 2473.33 C 1565.13 2469.48 1543.19 2469.71 1523.98 2469.08 C 1487.42 2468.09 1450.85 2467.45 1414.28 2467.18 C 1310.55 2465.73 1206.8 2465.93 1103.08 2467.76 C 1060.04 2468.27 1013.51 2466.72 970.883 2470.74 C 930.51 2474.54 891.614 2474.17 851.116 2474.32 C 838.649 2474.36 823.596 2473.79 811.443 2475.14 C 804.081 2475.73 796.662 2475.64 789.28 2475.68 C 746.153 2475.9 703.02 2475.22 659.894 2475.71 C 639.823 2473.85 621.314 2471.71 601.351 2469.46 C 592.99 2467.91 585.054 2467.63 576.13 2465.59 C 558.844 2461.92 541.732 2457.48 524.847 2452.27 C 490.901 2439.56 428.045 2407.86 419.126 2368.77 C 421.422 2370.66 434.857 2389.16 441.046 2395.25 C 464.411 2418.24 486.098 2435.04 518.255 2444.48 C 538.878 2450.72 570.221 2460.79 591.201 2463.84 C 667.122 2474.88 747.491 2470.37 824.493 2470.78 C 865.206 2471 938.794 2472.43 975.815 2466.45 C 978.425 2466.29 1007.39 2463.6 1007.85 2463.3 L 1007.38 2463.37 C 1017.54 2459.96 998.566 2450.84 996.308 2450.1 C 990.915 2449.2 990.161 2441.21 992.077 2436.81 C 996.84 2425.87 1005.95 2430.76 1011.46 2428.07 C 1072.39 2428.58 1133.32 2428.69 1194.25 2428.4 L 1516.98 2428.42 L 1620.04 2428.3 C 1634.39 2428.21 1696.01 2421.28 1698.85 2440.26 C 1699.62 2453.36 1682.01 2453.94 1673.91 2454.26 C 1579.76 2457.98 1486.03 2458.01 1391.8 2457.97 C 1380.8 2457.96 1362.85 2456.04 1352.79 2459.12 L 1353.72 2460.54 C 1359.23 2461.75 1364.57 2460.2 1370.47 2460.26 C 1488.56 2461.49 1606.43 2462.69 1724.39 2468.58 C 1741.52 2469.44 1757.08 2469.92 1774.13 2470.04 L 1919.01 2470.6 C 2029.54 2471.08 2158.11 2476.8 2248.39 2399.34 C 2283.42 2369.29 2276.77 2314.9 2276.65 2273.88 L 2276.61 2148.8 L 2276.69 1721.33 L 2276.83 363.356 C 2276.61 277.721 2195.57 241.94 2122.33 227.811 C 2108.23 225.093 2097.29 221.791 2082.45 221.94 C 2080.38 220.863 2073.16 221.31 2068.2 219.441 L 2067.12 216.958 z"/>
<path transform="translate(0,0)" fill="rgb(23,21,18)" d="M 1692.28 2445.22 C 1682.3 2450.39 1630.71 2448.74 1617.23 2448.8 L 1461.79 2449.31 L 1143.47 2449.33 L 1053.1 2449.02 C 1038.51 2449.01 1007.04 2452.2 995.644 2443.9 C 993.777 2439.46 993.778 2441.61 995.464 2437.24 C 1002.58 2431.74 1012.12 2431.36 1020.83 2431.43 C 1060.46 2431.74 1100.09 2431.7 1139.71 2431.7 L 1401.53 2431.68 L 1582.06 2431.62 C 1613.43 2431.55 1657.68 2430.11 1688.19 2432.35 L 1692.93 2436.94 C 1694.66 2440.37 1695.21 2441.8 1692.28 2445.22 z"/>
<path transform="translate(0,0)" fill="rgb(226,219,204)" fill-opacity="0.0509804" d="M 602.941 219.073 C 632.182 210.236 727.158 212.715 761.972 212.95 L 941.357 213.924 C 1107.49 211.939 1273.64 211.437 1439.78 212.418 C 1508.44 212.41 1576.69 211.509 1645.4 212.692 C 1674.68 214.746 1719.56 213.304 1749.98 213.293 L 1946.95 213.234 C 1983.25 213.244 2031.95 212.085 2067.12 216.958 L 2068.2 219.441 C 2073.16 221.31 2080.38 220.863 2082.45 221.94 C 2068.29 223.412 2062.52 220.41 2049.24 219.2 C 2016.94 216.256 1984.16 218.207 1951.7 218.239 L 1769.54 218.266 L 1651.78 218.169 C 1637.29 218.107 1576.88 214.17 1568.96 222.763 L 1568.79 226.309 L 1572.74 230.557 C 1419.61 232.67 1264.6 229.101 1111.37 231.211 C 1114.32 229.581 1117.23 227.881 1120.09 226.112 L 1119.33 223.716 C 1099.23 214.629 981.488 218.265 951.057 218.253 L 688.955 218.064 L 631.235 218.762 C 621.217 218.942 612.808 220.188 602.941 219.073 z"/>
<path transform="translate(0,0)" fill="rgb(1,1,1)" fill-opacity="0.686275" d="M 1550.69 2475.14 C 1569.43 2476.69 1600.21 2475.88 1619.48 2475.91 L 1762.06 2475.45 L 1921.44 2475.44 C 1956.13 2475.49 1991.94 2475.98 2026.57 2475.37 C 2042.74 2475.08 2068.84 2471.69 2085.49 2469.84 L 2087.84 2470.46 C 2091.22 2471.32 2092.96 2471.46 2096.41 2471.81 L 2097.45 2474.03 C 2041.98 2484.29 1983.74 2481.84 1927.33 2481.81 L 1691.81 2481.61 C 1653.71 2481.48 1598.8 2479.52 1562.48 2481.86 C 1549.93 2481.43 1536.4 2481.81 1523.78 2481.93 C 1501.23 2480.85 1471.64 2481.74 1448.35 2481.74 L 1302.92 2481.81 L 864.259 2481.84 L 726.12 2481.91 C 694.167 2481.92 653.672 2483.29 622.941 2478.03 C 633.239 2476.92 654.347 2478.81 659.894 2475.71 C 703.02 2475.22 746.153 2475.9 789.28 2475.68 C 796.662 2475.64 804.081 2475.73 811.443 2475.14 L 1303.11 2475.27 L 1467.29 2475.11 C 1493.02 2475.08 1525.98 2473.96 1550.69 2475.14 z"/>
<path transform="translate(0,0)" fill="rgb(226,219,204)" fill-opacity="0.337255" d="M 447.903 2420.04 C 464.675 2431.78 490.207 2448.47 510.135 2454.19 C 520.971 2458.56 544.419 2466.19 555.827 2467.23 L 561.059 2468.95 C 565.123 2470.27 570.59 2470.95 574.866 2471.72 L 581.42 2472.96 C 586.166 2473.86 591.198 2474.67 596.007 2475.09 C 601.647 2475.93 607.291 2476.64 612.94 2477.4 C 616.255 2477.84 619.597 2478.05 622.941 2478.03 C 653.672 2483.29 694.167 2481.92 726.12 2481.91 L 864.259 2481.84 L 1302.92 2481.81 L 1448.35 2481.74 C 1471.64 2481.74 1501.23 2480.85 1523.78 2481.93 L 1531.32 2483.18 L 1531.9 2484.08 C 1517.89 2486.21 1491.06 2486.39 1476.02 2486.86 L 1361.79 2489.42 C 1373.17 2489.63 1397.88 2489.31 1407.43 2490.78 C 1380.65 2492.32 1351.62 2489.68 1327.61 2491.13 C 1283.65 2489.67 1213.89 2489.06 1169.99 2490.91 C 1079.36 2479.65 986.691 2489 896.751 2485.61 C 753.782 2480.23 586.194 2508.63 458.971 2431.73 C 455.8 2429.82 448.573 2423.79 447.903 2420.04 z"/>
<path transform="translate(0,0)" fill="rgb(226,219,204)" fill-opacity="0.737255" d="M 811.443 2475.14 C 823.596 2473.79 838.649 2474.36 851.116 2474.32 C 891.614 2474.17 930.51 2474.54 970.883 2470.74 C 1013.51 2466.72 1060.04 2468.27 1103.08 2467.76 C 1206.8 2465.93 1310.55 2465.73 1414.28 2467.18 C 1450.85 2467.45 1487.42 2468.09 1523.98 2469.08 C 1543.19 2469.71 1565.13 2469.48 1583.74 2473.33 C 1575.53 2473.86 1557.19 2474.04 1550.69 2475.14 C 1525.98 2473.96 1493.02 2475.08 1467.29 2475.11 L 1303.11 2475.27 L 811.443 2475.14 z"/>
<path transform="translate(0,0)" fill="rgb(226,219,204)" fill-opacity="0.254902" d="M 2216.89 2437.7 C 2215.8 2440.91 2214.88 2443.65 2211.65 2445.38 C 2205.3 2448.76 2199.17 2447.07 2193.74 2452.81 C 2184.78 2462.28 2103.51 2479.38 2087.09 2481.8 C 2066.93 2484.76 2045.59 2486.84 2025.22 2487.22 C 1976.36 2488.13 1927.46 2487.16 1878.59 2487.48 C 1839.71 2487.74 1800.81 2489.37 1761.94 2489.28 C 1737.18 2489.22 1712.57 2487.17 1687.76 2487.49 C 1656.72 2487.89 1626.5 2491.09 1595.63 2492.77 C 1560.26 2494.71 1519.32 2494.29 1483.92 2492.67 C 1487.13 2491.84 1503.27 2490.38 1508.34 2489.63 C 1513.26 2489.31 1518.18 2488.93 1523.09 2488.5 L 1521.85 2488.37 C 1534.92 2486.18 1561.06 2484.9 1575.2 2483.79 C 1570.96 2483.38 1566.68 2482.57 1562.48 2481.86 C 1598.8 2479.52 1653.71 2481.48 1691.81 2481.61 L 1927.33 2481.81 C 1983.74 2481.84 2041.98 2484.29 2097.45 2474.03 C 2127.16 2472.45 2191.95 2453.97 2216.89 2437.7 z"/>
<path transform="translate(0,0)" fill="rgb(226,219,204)" fill-opacity="0.305882" d="M 1327.61 2491.13 C 1337.47 2493.43 1356.93 2493.03 1367.52 2493.24 C 1415.63 2494.18 1459.99 2487.18 1508.34 2489.63 C 1503.27 2490.38 1487.13 2491.84 1483.92 2492.67 C 1469.07 2494.92 1450.5 2490.3 1433.23 2493.7 C 1421.24 2494.52 1391.77 2501.07 1381.37 2500.12 C 1344.73 2496.76 1311.63 2492.73 1274.86 2492.98 L 1206.14 2493.33 C 1195.22 2493.37 1180.17 2494.24 1169.99 2490.91 C 1213.89 2489.06 1283.65 2489.67 1327.61 2491.13 z"/>
<path transform="translate(0,0)" fill="rgb(226,219,204)" fill-opacity="0.321569" d="M 1523.78 2481.93 C 1536.4 2481.81 1549.93 2481.43 1562.48 2481.86 C 1566.68 2482.57 1570.96 2483.38 1575.2 2483.79 C 1561.06 2484.9 1534.92 2486.18 1521.85 2488.37 L 1523.09 2488.5 C 1518.18 2488.93 1513.26 2489.31 1508.34 2489.63 C 1459.99 2487.18 1415.63 2494.18 1367.52 2493.24 C 1356.93 2493.03 1337.47 2493.43 1327.61 2491.13 C 1351.62 2489.68 1380.65 2492.32 1407.43 2490.78 C 1397.88 2489.31 1373.17 2489.63 1361.79 2489.42 L 1476.02 2486.86 C 1491.06 2486.39 1517.89 2486.21 1531.9 2484.08 L 1531.32 2483.18 L 1523.78 2481.93 z"/>
<path transform="translate(0,0)" fill="rgb(226,219,204)" fill-opacity="0.113725" d="M 975.815 2466.45 C 992.354 2461.52 985.178 2457.64 1002.11 2457.69 L 1002.1 2457.6 C 999.875 2455.56 995.123 2456.94 993.628 2455.52 C 988.24 2450.36 987.994 2435.89 992.55 2430.26 C 995.116 2427.09 1007.83 2427.65 1011.46 2428.07 C 1005.95 2430.76 996.84 2425.87 992.077 2436.81 C 990.161 2441.21 990.915 2449.2 996.308 2450.1 C 998.566 2450.84 1017.54 2459.96 1007.38 2463.37 L 1007.85 2463.3 C 1007.39 2463.6 978.425 2466.29 975.815 2466.45 z"/>
<path transform="translate(0,0)" fill="rgb(23,21,18)" d="M 601.351 2469.46 C 621.314 2471.71 639.823 2473.85 659.894 2475.71 C 654.347 2478.81 633.239 2476.92 622.941 2478.03 C 619.597 2478.05 616.255 2477.84 612.94 2477.4 C 607.291 2476.64 601.647 2475.93 596.007 2475.09 C 593.527 2470.08 595.993 2470.67 601.351 2469.46 z"/>
<path transform="translate(0,0)" fill="rgb(1,1,1)" fill-opacity="0.690196" d="M 576.13 2465.59 C 585.054 2467.63 592.99 2467.91 601.351 2469.46 C 595.993 2470.67 593.527 2470.08 596.007 2475.09 C 591.198 2474.67 586.166 2473.86 581.42 2472.96 L 574.866 2471.72 C 570.59 2470.95 565.123 2470.27 561.059 2468.95 L 555.827 2467.23 C 563.039 2466.78 575.02 2470.99 576.13 2465.59 z"/>
<path transform="translate(0,0)" fill="rgb(23,21,18)" d="M 834.75 150.727 C 854.71 149.614 879.481 150.244 899.709 150.259 L 1012.38 150.293 L 1357.6 150.291 L 1796.52 150.288 L 1934.04 150.253 C 2025.76 150.24 2117.73 157.418 2207.46 179.152 C 2214.41 180.834 2220.41 183.197 2227.63 184.545 C 2232.13 188.179 2265.06 199.987 2273.27 204.076 C 2329.62 232.124 2369.66 275.707 2380.21 339.221 C 2385.55 367.919 2383.91 395.975 2384.16 424.85 C 2384.54 471.448 2384.64 518.048 2384.46 564.647 L 2384.19 1014.85 L 2384.47 1912.57 L 2384.86 2171.78 C 2384.98 2199.65 2384.77 2227.8 2385.16 2255.55 C 2385.94 2311.02 2386.02 2367.96 2353.85 2415.97 C 2333.08 2446.96 2301.31 2466.61 2269.55 2484.68 C 2260.32 2489.93 2255.92 2486.53 2247.63 2494.36 C 2246.16 2495.75 2241.61 2497.88 2239.4 2498.46 C 2228.56 2500.02 2222.01 2501.86 2212 2506.93 C 2200.31 2505.11 2192 2509.3 2181.99 2505.95 C 2202.44 2500.93 2219.78 2496.01 2239.47 2488.77 C 2243.54 2487.01 2247.8 2485.43 2251.95 2483.82 L 2263.95 2478.2 C 2289.54 2464.47 2313.84 2448.29 2333.24 2426.34 C 2357.03 2399.43 2374.65 2339.57 2371.66 2304.71 C 2373.1 2292.26 2372.02 2242.17 2372 2226.94 L 2371.87 2063.61 L 2372.28 1530.97 L 2371.84 713.483 L 2370.93 466.675 C 2370.75 404.589 2380.25 340.634 2347.98 283.099 C 2330.09 251.19 2302.66 231.153 2270.77 214.719 C 2255.08 206.636 2240.58 197.512 2222.78 194.445 C 2220.32 194.002 2220.02 193.731 2217.78 192.428 C 2200.35 182.35 2061.4 162.631 2036.02 162.88 C 2022.65 153.439 1906.7 156.564 1882.79 156.522 L 1649.29 156.181 L 891.772 156.682 L 725.463 156.286 C 714.564 156.275 673.982 158.105 667.193 155.928 C 672.691 157.529 667.797 154.496 670.854 153.759 C 691.918 148.683 822.639 157.147 834.75 150.727 z"/>
<path transform="translate(0,0)" fill="rgb(23,21,18)" d="M 426.234 200.008 C 442.791 200.475 438.792 196.111 437.205 206.044 C 394.478 222.156 348.644 258.415 333.059 302.958 C 331.21 308.243 324.626 333.233 323.132 335.711 C 319.521 340.377 320 351.421 319.944 357.522 C 319.355 421.222 319.833 485.062 319.821 548.758 L 319.836 935.222 L 319.954 1982.4 C 319.474 1983.07 318.994 1983.73 318.514 1984.4 C 318.633 2075.62 317.864 2170.1 316.951 2260.93 C 316.779 2278.06 317.719 2343.38 316.274 2349.33 C 312.05 2349.55 313.951 2349.5 309.304 2346.84 C 309.644 2342.97 309.863 2339.99 308.029 2336.34 C 305.03 2330.36 304.651 2325.98 304.627 2319.37 C 304.481 2279.68 304.544 2239.9 304.55 2200.21 L 304.586 1971.53 L 304.57 1288.83 L 304.547 679.593 L 304.494 482.533 C 304.47 447.135 304.586 411.395 304.607 376.018 C 304.623 349.34 313.853 334.242 315.598 312.646 L 315.745 310.724 C 317.825 308.388 328.178 284.99 330.711 279.859 C 344.544 251.832 398.51 208.263 426.234 200.008 z"/>
<path transform="translate(0,0)" fill="rgb(1,1,1)" fill-opacity="0.72549" d="M 309.304 2346.84 C 313.951 2349.5 312.05 2349.55 316.274 2349.33 C 317.719 2343.38 316.779 2278.06 316.951 2260.93 C 317.864 2170.1 318.633 2075.62 318.514 1984.4 C 318.994 1983.73 319.474 1983.07 319.954 1982.4 L 320.065 1983.58 C 321.978 2006.14 320.404 2053.88 320.372 2078.24 L 320.434 2260.82 C 320.447 2285.9 319.844 2314.09 320.633 2339.3 C 320.721 2342.1 324.746 2352.12 325.293 2355.18 C 330.191 2382.52 347.571 2419.71 369.541 2437.88 C 406.374 2468.35 452.958 2490.14 499.665 2500.96 C 508.514 2503.01 518.371 2507.28 527.171 2507.94 C 533.388 2510.08 536.114 2510.66 542.617 2511.82 C 540.578 2511.85 530.282 2511.3 528.446 2512.66 C 528.288 2512.77 528.405 2513.09 528.501 2513.17 C 530.654 2514.98 535.388 2515.59 538.119 2515.56 C 544.823 2515.47 545.37 2516.61 550.119 2512.46 C 591.169 2520.58 650.114 2524.92 692.33 2527.92 C 743.218 2531.53 798.732 2526.38 850.08 2528.49 C 871.373 2528.38 927.645 2530.01 945.461 2527.77 C 1001.44 2526.96 1059.84 2527.97 1116 2528.05 L 1463.93 2528.17 L 1773.96 2528.01 C 1820.03 2528.06 1870 2526.86 1915.71 2528.05 C 1906.07 2533.74 1765.12 2524.2 1758.7 2532.48 L 1757.33 2531.92 C 1768.39 2534.6 1798.67 2533.25 1811.38 2533.21 L 1947.09 2533.05 C 1956.01 2533.06 2013.17 2533.71 2020.02 2535.32 C 2007.84 2537.15 1983.01 2536.49 1969.91 2536.47 L 1889.79 2536.43 L 1556.94 2535.1 L 946.22 2535.73 L 750.839 2535.96 C 727.4 2535.79 703.639 2536.21 680.255 2535.53 C 672.127 2535.29 663.045 2531.7 653.423 2531.03 C 622.091 2528.88 590.702 2526.5 559.71 2521.29 C 551.149 2519.85 539.129 2520.01 530.703 2518.25 C 511.373 2514.22 491.141 2509.57 472.116 2504.4 C 464.751 2502.4 449.228 2498.61 443.165 2494.82 C 434.946 2489.7 427.742 2488.03 419.057 2483.78 C 400.82 2474.75 383.679 2463.66 367.969 2450.73 C 338.554 2426.22 312.972 2385.15 309.304 2346.84 z"/>
<path transform="translate(0,0)" fill="rgb(226,219,204)" fill-opacity="0.121569" d="M 527.171 2507.94 C 550.887 2507.02 573.021 2508.35 596.619 2510.36 C 605.831 2511.14 615.431 2510.39 624.636 2511.6 C 636.369 2513.31 645.04 2517.63 657.425 2518.17 C 774.711 2522.24 892.104 2522.21 1009.39 2518.07 C 1038.16 2517.22 1066.16 2516.85 1094.86 2514.22 C 1104.63 2513.33 1117.97 2515.32 1127.98 2513.81 L 1124.97 2512.81 C 1138.47 2508.65 1240.54 2510.2 1259.39 2510.12 C 1365.89 2509.7 1472.36 2510.85 1578.85 2511.43 C 1597.11 2511.53 1616.17 2516.33 1634.93 2516.49 C 1714.17 2517.15 1793.76 2519.63 1872.94 2520.62 L 1936.59 2520.79 C 1950.24 2520.94 1962.59 2521.63 1976.46 2521.53 C 1995.83 2521.38 2020.76 2516.78 2038.98 2518.62 C 1965.39 2531.38 1887.52 2525.78 1812.96 2524.37 L 1575.34 2520.06 C 1403.15 2515.34 1230.85 2516.6 1058.76 2523.84 C 1045.18 2524.42 950.645 2525.82 945.461 2527.77 C 927.645 2530.01 871.373 2528.38 850.08 2528.49 C 798.732 2526.38 743.218 2531.53 692.33 2527.92 C 650.114 2524.92 591.169 2520.58 550.119 2512.46 C 547.308 2512.13 545.413 2511.84 542.617 2511.82 C 536.114 2510.66 533.388 2510.08 527.171 2507.94 z"/>
<path transform="translate(0,0)" fill="rgb(226,219,204)" fill-opacity="0.670588" d="M 2371.66 2304.71 C 2374.65 2339.57 2357.03 2399.43 2333.24 2426.34 C 2313.84 2448.29 2289.54 2464.47 2263.95 2478.2 L 2251.95 2483.82 C 2247.8 2485.43 2243.54 2487.01 2239.47 2488.77 C 2219.78 2496.01 2202.44 2500.93 2181.99 2505.95 C 2172.33 2507.47 2163.36 2509.31 2153.78 2511.3 C 2144.92 2512.63 2136.07 2514.05 2127.16 2515 C 2112.74 2516.63 2090.01 2518.57 2076.39 2521.29 C 2062.76 2522.59 2040.76 2524.68 2027.76 2526.59 C 1990.66 2528.29 1950.89 2526.2 1915.71 2528.05 C 1870 2526.86 1820.03 2528.06 1773.96 2528.01 L 1463.93 2528.17 L 1116 2528.05 C 1059.84 2527.97 1001.44 2526.96 945.461 2527.77 C 950.645 2525.82 1045.18 2524.42 1058.76 2523.84 C 1230.85 2516.6 1403.15 2515.34 1575.34 2520.06 L 1812.96 2524.37 C 1887.52 2525.78 1965.39 2531.38 2038.98 2518.62 C 2066.06 2516.28 2092.34 2515.33 2119.21 2510.29 C 2130.47 2508.17 2145.24 2509.35 2156.42 2506.73 C 2238.46 2487.46 2334.96 2461.18 2359.76 2368.62 C 2365.88 2345.76 2368.92 2327.77 2371.66 2304.71 z"/>
<path transform="translate(0,0)" fill="rgb(1,1,1)" fill-opacity="0.619608" d="M 600.041 158.957 C 606.833 156.886 611.802 157.248 618.83 157.329 C 638 158.142 658.738 150.401 677.741 150.705 C 728.893 151.522 783.892 147.931 834.75 150.727 C 822.639 157.147 691.918 148.683 670.854 153.759 C 667.797 154.496 672.691 157.529 667.193 155.928 C 673.982 158.105 714.564 156.275 725.463 156.286 L 891.772 156.682 L 1649.29 156.181 L 1882.79 156.522 C 1906.7 156.564 2022.65 153.439 2036.02 162.88 C 2022.69 163.363 2006.84 159.392 1990.48 159.45 L 1756.59 159.381 L 1021.52 159.36 C 916.539 159.34 811.454 159.715 706.451 159.243 C 685.945 159.15 662.321 163.457 641.637 164.787 C 636.047 165.146 629.573 167.719 624.888 167.121 L 625.182 165.703 C 627.943 164.14 626.627 165.044 629.118 162.976 L 628.726 161.577 C 618.714 159.619 609.785 161.614 600.041 158.957 z"/>
<path transform="translate(0,0)" fill="rgb(1,1,1)" fill-opacity="0.709804" d="M 2153.78 2511.3 C 2163.36 2509.31 2172.33 2507.47 2181.99 2505.95 C 2192 2509.3 2200.31 2505.11 2212 2506.93 C 2206.59 2509.28 2199.85 2510.39 2193.9 2511.35 C 2184.04 2512.96 2171.05 2518.35 2161.44 2519.18 C 2120.94 2522.7 2080.86 2529.35 2040.32 2532.39 C 2033.5 2532.9 2026.15 2534.99 2020.02 2535.32 C 2013.17 2533.71 1956.01 2533.06 1947.09 2533.05 L 1811.38 2533.21 C 1798.67 2533.25 1768.39 2534.6 1757.33 2531.92 L 1758.7 2532.48 C 1765.12 2524.2 1906.07 2533.74 1915.71 2528.05 C 1950.89 2526.2 1990.66 2528.29 2027.76 2526.59 C 2037.19 2528.1 2071.17 2530.24 2076.39 2521.29 C 2090.01 2518.57 2112.74 2516.63 2127.16 2515 C 2131.77 2518.42 2164.46 2519.06 2153.78 2511.3 z"/>
<path transform="translate(0,0)" fill="rgb(23,21,18)" d="M 447.839 189.729 C 471.955 183.83 501.744 173.02 526.758 168.81 C 549.789 164.934 577.099 164.419 600.041 158.957 C 609.785 161.614 618.714 159.619 628.726 161.577 L 629.118 162.976 C 626.627 165.044 627.943 164.14 625.182 165.703 L 624.888 167.121 C 612.262 168.931 599.492 169.262 586.846 170.957 C 547.302 176.259 497.106 181.943 459.859 196.737 C 457.678 196.555 450.01 196.65 447.876 196.233 C 447.606 196.181 447.584 194.727 447.708 194.316 C 448.222 192.615 448.014 191.582 447.839 189.729 z"/>
<path transform="translate(0,0)" fill="rgb(1,1,1)" fill-opacity="0.776471" d="M 426.234 200.008 C 431.765 197.623 440.438 194.03 445.515 191.046 L 447.839 189.729 C 448.014 191.582 448.222 192.615 447.708 194.316 C 447.584 194.727 447.606 196.181 447.876 196.233 C 450.01 196.65 457.678 196.555 459.859 196.737 C 453.022 199.77 447.037 198.972 441.527 203.949 C 440.432 204.938 438.496 205.575 437.205 206.044 C 438.792 196.111 442.791 200.475 426.234 200.008 z"/>
<path transform="translate(0,0)" fill="rgb(23,21,18)" d="M 2027.76 2526.59 C 2040.76 2524.68 2062.76 2522.59 2076.39 2521.29 C 2071.17 2530.24 2037.19 2528.1 2027.76 2526.59 z"/>
<path transform="translate(0,0)" fill="rgb(23,21,18)" d="M 2127.16 2515 C 2136.07 2514.05 2144.92 2512.63 2153.78 2511.3 C 2164.46 2519.06 2131.77 2518.42 2127.16 2515 z"/>
<path transform="translate(0,0)" fill="rgb(23,21,18)" d="M 542.617 2511.82 C 545.413 2511.84 547.308 2512.13 550.119 2512.46 C 545.37 2516.61 544.823 2515.47 538.119 2515.56 C 535.388 2515.59 530.654 2514.98 528.501 2513.17 C 528.405 2513.09 528.288 2512.77 528.446 2512.66 C 530.282 2511.3 540.578 2511.85 542.617 2511.82 z"/>
</svg>